<?xml version="1.0" encoding="UTF-8" standalone="no"?>
<svg
   xmlns:dc="http://purl.org/dc/elements/1.1/"
   xmlns:cc="http://creativecommons.org/ns#"
   xmlns:rdf="http://www.w3.org/1999/02/22-rdf-syntax-ns#"
   xmlns:svg="http://www.w3.org/2000/svg"
   xmlns="http://www.w3.org/2000/svg"
   xmlns:sodipodi="http://sodipodi.sourceforge.net/DTD/sodipodi-0.dtd"
   xmlns:inkscape="http://www.inkscape.org/namespaces/inkscape"
   height="512pt"
   viewBox="0 0 512 512"
   width="512pt"
   version="1.1"
   id="svg4534"
   sodipodi:docname="refresh.svg"
   inkscape:version="0.92.4 (5da689c313, 2019-01-14)">
  <metadata
     id="metadata4540">
    <rdf:RDF>
      <cc:Work
         rdf:about="">
        <dc:format>image/svg+xml</dc:format>
        <dc:type
           rdf:resource="http://purl.org/dc/dcmitype/StillImage" />
      </cc:Work>
    </rdf:RDF>
  </metadata>
  <defs
     id="defs4538" />
  <sodipodi:namedview
     pagecolor="#ffffff"
     bordercolor="#666666"
     borderopacity="1"
     objecttolerance="10"
     gridtolerance="10"
     guidetolerance="10"
     inkscape:pageopacity="0"
     inkscape:pageshadow="2"
     inkscape:window-width="1827"
     inkscape:window-height="1046"
     id="namedview4536"
     showgrid="false"
     inkscape:zoom="1.2055664"
     inkscape:cx="341.33333"
     inkscape:cy="341.33333"
     inkscape:window-x="-11"
     inkscape:window-y="-11"
     inkscape:window-maximized="1"
     inkscape:current-layer="svg4534" />
  <path
     d="m61.496094 279.609375c-.988282-8.234375-1.496094-16.414063-1.496094-23.609375 0-107.402344 88.597656-196 196-196 50.097656 0 97 20.199219 131.5 51.699219l-17.300781 17.601562c-3.898438 3.898438-5.398438 9.597657-3.898438 15 1.800781 5.097657 6 9 11.398438 10.199219 3.019531.605469 102.214843 32.570312 95.898437 31.300781 8.035156 2.675781 19.917969-5.894531 17.703125-17.699219-.609375-3.023437-22.570312-113.214843-21.300781-106.902343-1.199219-5.398438-5.101562-9.898438-10.5-11.398438-5.097656-1.5-10.800781 0-14.699219 3.898438l-14.699219 14.398437c-45.300781-42.296875-107.503906-68.097656-174.101562-68.097656-140.699219 0-256 115.300781-256 256v.597656c0 8.457032.386719 14.992188.835938 19.992188.597656 6.625 5.480468 12.050781 12.003906 13.359375l30.816406 6.160156c10.03125 2.007813 19.050781-6.402344 17.839844-16.5zm0 0"
     id="path4530"
     style="fill:#828d93;fill-opacity:1" />
  <path
     d="m499.25 222.027344-30.90625-6.296875c-10.042969-2.046875-19.125 6.371093-17.890625 16.515625 1.070313 8.753906 1.546875 17.265625 1.546875 23.753906 0 107.398438-88.597656 196-196 196-50.097656 0-97-20.199219-131.5-52l17.300781-17.300781c3.898438-3.898438 5.398438-9.597657 3.898438-15-1.800781-5.101563-6-9-11.398438-10.199219-3.019531-.609375-102.214843-32.570312-95.898437-31.300781-5.101563-.898438-10.203125.601562-13.5 4.199219-3.601563 3.300781-5.101563 8.699218-4.203125 13.5.609375 3.019531 22.574219 112.210937 21.304687 105.898437 1.195313 5.402344 5.097656 9.902344 10.496094 11.398437 6.261719 1.570313 11.488281-.328124 14.699219-3.898437l14.402343-14.398437c45.296876 42.300781 107.5 69.101562 174.398438 69.101562 140.699219 0 256-115.300781 256-256v-.902344c0-6.648437-.242188-13.175781-.796875-19.664062-.570313-6.628906-5.433594-12.074219-11.953125-13.40625zm0 0"
     id="path4532"
     style="fill:#828d93;fill-opacity:1" />
</svg>
